<svg id="Layer_2" data-name="Layer 2" xmlns="http://www.w3.org/2000/svg" viewBox="0 0 173.02 160.2"><defs><style>.cls-1{fill:#73efb2;}</style></defs><title>vegy</title><path class="cls-1" d="M.87,10.08C.7,9.42.56,8.84.44,8.34S.21,7.3.12,6.72A11.19,11.19,0,0,1,0,5.23a4.75,4.75,0,0,1,1.68-3.8A7.63,7.63,0,0,1,6.72,0h22.4A7.55,7.55,0,0,1,34,1.49a10.28,10.28,0,0,1,3,4.23l2.24,5.6q2.49,7.09,5.66,15.93l6.53,18.23q3.36,9.41,6.72,18.67t6.35,17.42q3,8.15,5.35,14.43t3.73,9.65q2.11-6.11,4.92-14t6-16.8q3.24-8.89,6.6-18.36T97.68,38q3.24-9.08,6.16-17.35l5.29-15a9.8,9.8,0,0,1,3.05-4.29A8.23,8.23,0,0,1,117.1,0h23.27q3.85,0,5.28,1.25a4,4,0,0,1,1.44,3.23A12.62,12.62,0,0,1,146.77,7a19.33,19.33,0,0,1-.56,2.24L87,153.06a20.31,20.31,0,0,1-2.42,3.36Q83.12,158,79.27,158H67.82q-4.48,0-6-1.56a10.22,10.22,0,0,1-2.3-3.42Z"/><circle class="cls-1" cx="147.09" cy="134.26" r="25.94"/></svg>