<svg id="Layer_2" data-name="Layer 2" xmlns="http://www.w3.org/2000/svg" viewBox="0 0 110.97 60"><defs><style>.cls-1{fill:#fff;}.cls-2{fill:#73efb2;}</style></defs><title>vegy</title><rect class="cls-1" x="-14.71" y="-12.93" width="141.79" height="91.02"/><g id="J6KyPM.tif"><path class="cls-2" d="M97.54,30.49l-.34.34c-.36.23-.71.48-1.08.69a31.1,31.1,0,0,1-4.59,2.09,161,161,0,0,1-19.69,6c-.83.2-1.69.32-2.53.47a.68.68,0,0,1-.58-.16,6.59,6.59,0,0,1-1.41-1.57,15.8,15.8,0,0,1-2.59-6.77c0-.08,0-.16,0-.29,0,.08-.05.11-.06.14A13.4,13.4,0,0,0,64,37.19c.1,1,.3,2,.44,2.93a4.56,4.56,0,0,1,0,.9.57.57,0,0,1-.22.38,2.43,2.43,0,0,1-.64.33c-.77.23-1.54.48-2.33.66-3.87.87-7.79,1.42-11.72,2a2.26,2.26,0,0,1-1.26-.2A5.17,5.17,0,0,1,46.75,43a12.73,12.73,0,0,1-2.23-3.43,22.38,22.38,0,0,1-1.93-7.5c0-.28,0-.57-.07-.91-.51.18-1,.33-1.46.52A9.8,9.8,0,0,0,38,33.48a3.49,3.49,0,0,0-1.25,2.32,3.2,3.2,0,0,1-.13.63,2.56,2.56,0,0,1-.17.43l-.5-.22a1.72,1.72,0,0,0,.14.33c.12.18.27.34.39.51a3,3,0,0,1,.43.6c.28.66.24,1.42-.77,1.58l-.32.06a8.84,8.84,0,0,1,.68.69,2.57,2.57,0,0,1,.6,1.54.82.82,0,0,1-1.17.81l-.09,0a.07.07,0,0,0,0,.05l.08.13a6,6,0,0,1,.85,2.1c.17,1-.33,1.52-1.35,1.4a4.27,4.27,0,0,1-2.17-1,12,12,0,0,1-.86-.89s0,.13,0,.21c.09.45.21.89.28,1.34a6.7,6.7,0,0,1,.09,1.18,1.58,1.58,0,0,1-.67,1.3,2,2,0,0,1-2.33.07,12,12,0,0,1-1.22-1c-.2-.17-.24-.17-.37,0a.41.41,0,0,1-.41.26l-.14-.14a3.68,3.68,0,0,1-.31-1.46,2.33,2.33,0,0,0-.08-.46c-.06-.23-.14-.25-.3-.09l-.25.27a.53.53,0,0,1-.6.2L26,46.09a5.33,5.33,0,0,1-.17-.66A6.07,6.07,0,0,1,26.51,42l0-.11a4.66,4.66,0,0,1-.47.3.28.28,0,0,1-.44-.22,1.29,1.29,0,0,1,0-.48c.16-.64.32-1.28.53-1.9a6.14,6.14,0,0,1,1.42-2.39c.1-.11.19-.23.31-.38l-.72.22a1.35,1.35,0,0,1,.25-1,5.12,5.12,0,0,1,2.8-2.09l.07-.05-.13,0c-.34-.07-.42-.22-.18-.47a4.5,4.5,0,0,1,.9-.73,22.08,22.08,0,0,1,4.25-1.81l.21-.07a20.86,20.86,0,0,0-5,1.16c-1.13.43-2.23.94-3.34,1.41a4.37,4.37,0,0,1-1.7.44,1.2,1.2,0,0,1-1.05-.46,3.15,3.15,0,0,1-.29-.65l-.09.12A4.59,4.59,0,0,1,22,34.29a2,2,0,0,1-1.33.05,1,1,0,0,1-.75-1.26.54.54,0,0,1,0-.11l-.17.15a12.84,12.84,0,0,1-1.08.87,2.15,2.15,0,0,1-1.83.3c-.79-.22-1.33-1.32-.5-1.91-.13,0-.26,0-.37,0a11.43,11.43,0,0,1-1.17-.2,2,2,0,0,1-1.16-.79,2.44,2.44,0,0,1,.65-3.28,2.38,2.38,0,0,1,1.49-.53,3.13,3.13,0,0,1-.13-.48,1.3,1.3,0,0,1,1.18-1.33,4.08,4.08,0,0,1,1.16.1,5.21,5.21,0,0,1,1.82.88l.34.24a4.49,4.49,0,0,0-.37-.49.84.84,0,0,1,0-1.11,1.48,1.48,0,0,1,.88-.46,2.3,2.3,0,0,1,1.75.36c.7.46,1.37,1,2.05,1.47.16.11.31.25.5.4-.05-.18-.09-.3-.12-.43-.08-.48.12-.7.6-.65a3.26,3.26,0,0,1,1.29.38c.55.3,1.09.63,1.64.93A15.52,15.52,0,0,0,33,28.9c.75.15,1.5.26,2.26.39v-.06L35,29.15a29.56,29.56,0,0,1-4.37-1.89,3.13,3.13,0,0,1-.69-.57c-.17-.19-.1-.36.15-.45l.25-.07c-.22-.08-.44-.14-.65-.23a5.83,5.83,0,0,1-1.82-1.28,5.8,5.8,0,0,1-.67-.95.9.9,0,0,1-.08-.71l.77.16-.44-.48a4.07,4.07,0,0,1-.82-1.07,12.71,12.71,0,0,1-1-3.07,1.29,1.29,0,0,1,0-.44c0-.33.24-.44.54-.27a3.44,3.44,0,0,1,.38.27,5.75,5.75,0,0,1-.74-3.37A2.07,2.07,0,0,1,26,14a.39.39,0,0,1,.67-.11,1.81,1.81,0,0,1,.18.21c.08.1.17.19.29.32a3.25,3.25,0,0,0,.11-.35c.05-.32.08-.64.14-.95a4,4,0,0,1,.18-.72c.12-.32.39-.34.6-.07l0,.05c.09.16.19.15.3,0l.32-.31a10.27,10.27,0,0,1,1-.79,1.94,1.94,0,0,1,2.14,0,1.84,1.84,0,0,1,.92,1.79,6.18,6.18,0,0,1-.11.85c-.08.46-.19.91-.28,1.37a.36.36,0,0,0,0,.11s0,.08,0,.12a4.31,4.31,0,0,1,1.07-1.14,3.91,3.91,0,0,1,2-.84c.94-.07,1.38.4,1.26,1.33a5.14,5.14,0,0,1-.53,1.56c-.13.27-.28.52-.43.81a.82.82,0,0,1,1,.06,1,1,0,0,1,.28,1,2.25,2.25,0,0,1-.13.42,3.11,3.11,0,0,1-1.24,1.57l.25,0a5,5,0,0,1,.64.17.78.78,0,0,1,.5.62,1.27,1.27,0,0,1-.25,1c-.17.2-.37.39-.53.6a5.36,5.36,0,0,0-.38.55l0,0,.16-.08c.17-.08.31-.06.37.14a5.88,5.88,0,0,1,.23.79,3.89,3.89,0,0,0,1.64,2.65,12.22,12.22,0,0,0,3.51,1.82l.7.2a1.42,1.42,0,0,0,0-.19A24.09,24.09,0,0,1,43.1,25,18.82,18.82,0,0,1,46,18.06a6.79,6.79,0,0,1,2-2,2.33,2.33,0,0,1,1.77-.33c1.54.33,3.09.62,4.64.92a.27.27,0,0,1,.27.31c0,.22,0,.44,0,.66-.06.93-.15,1.85-.17,2.78a4.75,4.75,0,0,0,.58,2.44,7.25,7.25,0,0,0,.5.73.46.46,0,0,0,.07-.18,9.78,9.78,0,0,1,2.08-5.27,1.41,1.41,0,0,1,1.17-.64c.52,0,1.05,0,1.57,0a31,31,0,0,1,7.33,1.4,19.46,19.46,0,0,1,2,.8,1.53,1.53,0,0,1,.89,1.68c0,.45-.11.9-.19,1.35a6.66,6.66,0,0,0,.42,4L71,27l.08-.28c.4-1.22.78-2.45,1.2-3.66a5.58,5.58,0,0,1,.93-1.73A.74.74,0,0,1,74,21c.84.23,1.7.43,2.55.65C81,22.82,85.32,24,89.62,25.5a40.6,40.6,0,0,1,5.91,2.44,6.69,6.69,0,0,1,1.81,1.26A.92.92,0,0,1,97.54,30.49Z"/></g></svg>