<svg xmlns="http://www.w3.org/2000/svg" viewBox="0 0 280.598 79.438">
  <defs>
    <style>
      .cls-1 {
        fill: #73efb2;
      }
    </style>
  </defs>
  <g id="Group_20" data-name="Group 20" transform="translate(-1532.141 -1877.88) rotate(-3)">
    <g id="qQLZpi.tif_1_" transform="translate(1431.021 1969.958)">
      <g id="Group_7" data-name="Group 7" transform="translate(-0.021 0.042)">
        <path id="Path_7" data-name="Path 7" class="cls-1" d="M34.764,9.415c.74-1.042,1.4-2.169,2.219-3.127C41.1,1.43,46.464-.369,52.667.119c9.414.756,15,7.649,16.508,15.869,1.093,5.951-.252,11.431-3.009,16.676A70.774,70.774,0,0,1,53.894,48.786,143.71,143.71,0,0,1,35.285,64.722a5.1,5.1,0,0,1-.521.319c-1.21-.891-2.454-1.782-3.665-2.723A127.659,127.659,0,0,1,10.321,42.8c-3.749-4.522-7.094-9.33-8.977-14.962C-1.077,20.594-.337,13.651,4.034,7.33,7.631,2.136,12.876-.083,19.1.051,25.955.2,31.233,3.161,34.629,9.23,34.679,9.314,34.73,9.365,34.764,9.415Z" transform="translate(0.021 -0.042)"/>
      </g>
    </g>
    <g id="qQLZpi.tif_1_2" data-name="qQLZpi.tif_1_" transform="translate(1535.021 1969.958)">
      <g id="Group_7-2" data-name="Group 7" transform="translate(-0.021 0.042)">
        <path id="Path_7-2" data-name="Path 7" class="cls-1" d="M34.764,9.415c.74-1.042,1.4-2.169,2.219-3.127C41.1,1.43,46.464-.369,52.667.119c9.414.756,15,7.649,16.508,15.869,1.093,5.951-.252,11.431-3.009,16.676A70.774,70.774,0,0,1,53.894,48.786,143.71,143.71,0,0,1,35.285,64.722a5.1,5.1,0,0,1-.521.319c-1.21-.891-2.454-1.782-3.665-2.723A127.659,127.659,0,0,1,10.321,42.8c-3.749-4.522-7.094-9.33-8.977-14.962C-1.077,20.594-.337,13.651,4.034,7.33,7.631,2.136,12.876-.083,19.1.051,25.955.2,31.233,3.161,34.629,9.23,34.679,9.314,34.73,9.365,34.764,9.415Z" transform="translate(0.021 -0.042)"/>
      </g>
    </g>
    <g id="qQLZpi.tif_1_3" data-name="qQLZpi.tif_1_" transform="translate(1639.021 1969.958)">
      <g id="Group_7-3" data-name="Group 7" transform="translate(-0.021 0.042)">
        <path id="Path_7-3" data-name="Path 7" class="cls-1" d="M34.764,9.415c.74-1.042,1.4-2.169,2.219-3.127C41.1,1.43,46.464-.369,52.667.119c9.414.756,15,7.649,16.508,15.869,1.093,5.951-.252,11.431-3.009,16.676A70.774,70.774,0,0,1,53.894,48.786,143.71,143.71,0,0,1,35.285,64.722a5.1,5.1,0,0,1-.521.319c-1.21-.891-2.454-1.782-3.665-2.723A127.659,127.659,0,0,1,10.321,42.8c-3.749-4.522-7.094-9.33-8.977-14.962C-1.077,20.594-.337,13.651,4.034,7.33,7.631,2.136,12.876-.083,19.1.051,25.955.2,31.233,3.161,34.629,9.23,34.679,9.314,34.73,9.365,34.764,9.415Z" transform="translate(0.021 -0.042)"/>
      </g>
    </g>
  </g>
</svg>
