<svg id="Group_3" data-name="Group 3" xmlns="http://www.w3.org/2000/svg" viewBox="0 0 113.9 38.1">
  <defs>
    <style>
      .cls-1 {
        fill: #73efb2;
      }
    </style>
  </defs>
  <g id="Group_1" data-name="Group 1">
    <path id="Path_1" data-name="Path 1" class="cls-1" d="M.2,2.3C.2,2.2.1,2.1.1,2A.367.367,0,0,0,0,1.7V1.4A.908.908,0,0,1,.3.7,1.222,1.222,0,0,1,1.2.4H5.1A1.4,1.4,0,0,1,6,.7a1.794,1.794,0,0,1,.5.7l.4,1c.3.8.6,1.8,1,2.8A30.053,30.053,0,0,1,9,8.4l1.2,3.3c.4,1.1.8,2.1,1.1,3.1.4,1,.7,1.8.9,2.5.3.7.5,1.3.7,1.7.2-.7.5-1.5.9-2.5.3-.9.7-1.9,1.1-3,.4-1,.8-2.1,1.2-3.2L17.3,7c.4-1.1.7-2.1,1.1-3.1.3-1,.7-1.8.9-2.6a1.578,1.578,0,0,1,.5-.8c.2-.2.5-.2.9-.2h4.1a1.44,1.44,0,0,1,.9.2.6.6,0,0,1,.3.6.6.6,0,0,1-.1.4c0,.2-.1.3-.1.4L15.3,27.4c-.1.2-.3.4-.4.6a1.222,1.222,0,0,1-.9.3H12a1.609,1.609,0,0,1-1.1-.3,2.092,2.092,0,0,1-.4-.6Z"/>
    <path id="Path_2" data-name="Path 2" class="cls-1" d="M49,25.2a15.431,15.431,0,0,1-4.2,2.6,13.477,13.477,0,0,1-5,.9,15.1,15.1,0,0,1-5.6-1.1,13.345,13.345,0,0,1-4.6-3.1,15.165,15.165,0,0,1-3.2-4.6,13.092,13.092,0,0,1-1.2-5.6,15.827,15.827,0,0,1,.5-3.8A15.068,15.068,0,0,1,27,7.2a12.34,12.34,0,0,1,2.2-2.9A15.6,15.6,0,0,1,32,2,17.5,17.5,0,0,1,35.4.5,16,16,0,0,1,39.3,0a12.423,12.423,0,0,1,3.3.4,28.265,28.265,0,0,1,3.1,1.1,12.705,12.705,0,0,1,2.7,1.8,12.557,12.557,0,0,1,2.2,2.4,11.371,11.371,0,0,1,1.9,4,17.268,17.268,0,0,1,.6,4.7,3.75,3.75,0,0,1-.1,1.1.908.908,0,0,1-.3.7c-.1.2-.4.3-.7.4a4.121,4.121,0,0,1-1.2.1H31.5a7.816,7.816,0,0,0,1.1,2.8,9.516,9.516,0,0,0,1.9,2.1,6.983,6.983,0,0,0,2.4,1.3,7.834,7.834,0,0,0,2.6.4,11.076,11.076,0,0,0,1.9-.2,8.447,8.447,0,0,0,1.7-.5,10.93,10.93,0,0,0,1.5-.8l1.2-.9h0a1.756,1.756,0,0,1,.5-.4.9.9,0,0,1,.5-.1.6.6,0,0,1,.4.1,1.756,1.756,0,0,1,.5.4c.4.5.7.9,1,1.2s.5.6.7.8a2.092,2.092,0,0,1,.4.6.9.9,0,0,1,.1.5A2.372,2.372,0,0,1,49,25.2ZM39.3,5.5a6.963,6.963,0,0,0-2.5.5,6.113,6.113,0,0,0-2.2,1.3,8.129,8.129,0,0,0-1.8,1.9,6.59,6.59,0,0,0-1.1,2.4H47.2a6.59,6.59,0,0,0-1.1-2.4,7.725,7.725,0,0,0-1.7-1.9,8.36,8.36,0,0,0-2.3-1.2A5.457,5.457,0,0,0,39.3,5.5Z"/>
    <path id="Path_3" data-name="Path 3" class="cls-1" d="M76.4,26.3a2.769,2.769,0,0,0,.1-.9v-1c-.5.6-1.1,1.1-1.6,1.6A12.735,12.735,0,0,1,73,27.3a8.264,8.264,0,0,1-2.2.8,10.9,10.9,0,0,1-2.6.3,15.827,15.827,0,0,1-3.8-.5A14.344,14.344,0,0,1,61,26.5a11.825,11.825,0,0,1-2.8-2.2A15.1,15.1,0,0,1,56,21.5a12.811,12.811,0,0,1-1.4-3.4,15.827,15.827,0,0,1-.5-3.8,15.827,15.827,0,0,1,.5-3.8A12.81,12.81,0,0,1,56,7.1a12.34,12.34,0,0,1,2.2-2.9A10.112,10.112,0,0,1,61,2,12.81,12.81,0,0,1,64.4.6,11.044,11.044,0,0,1,68.1,0a10.9,10.9,0,0,1,2.6.3,15.546,15.546,0,0,1,2.3.8,13.735,13.735,0,0,1,2,1.3A12.878,12.878,0,0,1,76.7,4c.1-.4.1-.8.2-1.2A4.869,4.869,0,0,0,77,1.6a3,3,0,0,1,.4-1,1.327,1.327,0,0,1,1-.3h2.8a1.222,1.222,0,0,1,.9.4.975.975,0,0,1,.4.9V24a14.589,14.589,0,0,1-1.2,6.2,11.925,11.925,0,0,1-3.2,4.4,13.075,13.075,0,0,1-4.6,2.6,17.3,17.3,0,0,1-5.6.9,21.052,21.052,0,0,1-2.5-.2,11.364,11.364,0,0,1-2.5-.6c-.8-.3-1.6-.6-2.3-.9a13.735,13.735,0,0,1-2-1.3c-.2-.1-.3-.3-.5-.4a1.421,1.421,0,0,1-.2-.6v-.4a.758.758,0,0,1,.2-.4l1.6-2.4.4-.4a.85.85,0,0,1,.8,0c.1.1.3.1.5.3a5.67,5.67,0,0,0,1.3.8,9.829,9.829,0,0,0,1.6.5c.6.1,1.1.2,1.7.3a8.636,8.636,0,0,0,1.5.1,10.55,10.55,0,0,0,3.1-.4,8.931,8.931,0,0,0,2.6-1.2A6.871,6.871,0,0,0,75.1,29,4.045,4.045,0,0,0,76.4,26.3Zm-16.2-12a8.808,8.808,0,0,0,.6,3.3,8.535,8.535,0,0,0,4.3,4.6,7.111,7.111,0,0,0,3.2.7,7.535,7.535,0,0,0,3.3-.7,12.705,12.705,0,0,0,2.7-1.8,7.992,7.992,0,0,0,1.8-2.7,8.756,8.756,0,0,0,.7-3.2v-.4a8.756,8.756,0,0,0-.7-3.2,7.992,7.992,0,0,0-1.8-2.7,7.124,7.124,0,0,0-2.7-1.8,7.245,7.245,0,0,0-3.3-.7,6.83,6.83,0,0,0-3.2.7,9.663,9.663,0,0,0-2.6,1.9A9.482,9.482,0,0,0,60.8,11,9.6,9.6,0,0,0,60.2,14.3Z"/>
    <path id="Path_4" data-name="Path 4" class="cls-1" d="M95.8,36.3a1.275,1.275,0,0,1-.5.7,1.077,1.077,0,0,1-.8.2H90.4a1.292,1.292,0,0,1-.8-.2c-.2-.1-.2-.3-.2-.5a.756.756,0,0,1,.1-.4.438.438,0,0,1,.1-.3L93.5,26,83.6,2.2V1.9a.9.9,0,0,1-.1-.5.864.864,0,0,1,.3-.6,1.549,1.549,0,0,1,.8-.2h4a1.291,1.291,0,0,1,1.3.9l.4,1c.3.8.6,1.7,1,2.7s.7,2.1,1.1,3.1l1.2,3.3c.4,1.1.8,2.1,1.1,3.1.4,1,.7,1.8,1,2.6s.5,1.4.7,1.8l6.5-17.6a1.275,1.275,0,0,1,.5-.7,1.077,1.077,0,0,1,.8-.2h4.1a1.292,1.292,0,0,1,.8.2c.2.1.2.3.2.5a.756.756,0,0,1-.1.4.438.438,0,0,1-.1.3Z"/>
  </g>
  <circle id="Ellipse_2" data-name="Ellipse 2" class="cls-1" cx="4.6" cy="4.6" r="4.6" transform="translate(104.7 19.5)"/>
</svg>
