<svg id="Layer_2" data-name="Layer 2" xmlns="http://www.w3.org/2000/svg" viewBox="0 0 110.97 60"><defs><style>.cls-1{fill:#fff;}.cls-2{fill:#73efb2;}</style></defs><title>vegy</title><rect class="cls-1" x="-14.71" y="-12.93" width="141.79" height="91.02"/><g id="J6KyPM.tif"><path class="cls-2" d="M10.46,29.48l.34-.34c.36-.23.71-.48,1.08-.69a31.1,31.1,0,0,1,4.59-2.09,161,161,0,0,1,19.69-6c.83-.2,1.69-.32,2.53-.47a.71.71,0,0,1,.59.16,6.55,6.55,0,0,1,1.4,1.57,15.94,15.94,0,0,1,2.6,6.77c0,.08,0,.16,0,.29a.9.9,0,0,0,.06-.14,13.4,13.4,0,0,0,.67-5.72c-.1-1-.3-2-.44-2.93a4.56,4.56,0,0,1,0-.9.57.57,0,0,1,.22-.38,2.43,2.43,0,0,1,.64-.33c.77-.23,1.54-.48,2.33-.66,3.87-.87,7.8-1.42,11.73-1.95a2.24,2.24,0,0,1,1.25.2A5.35,5.35,0,0,1,61.26,17a12.7,12.7,0,0,1,2.22,3.43,22.38,22.38,0,0,1,1.93,7.5c0,.28,0,.57.07.91.51-.18,1-.33,1.47-.52A10,10,0,0,0,70,26.49a3.52,3.52,0,0,0,1.24-2.32,3.2,3.2,0,0,1,.13-.63,3.83,3.83,0,0,1,.17-.43l.5.22a1.72,1.72,0,0,0-.14-.33c-.12-.18-.27-.34-.39-.51a3,3,0,0,1-.43-.6c-.28-.66-.24-1.42.78-1.58l.32-.06a7.49,7.49,0,0,1-.69-.69A2.5,2.5,0,0,1,70.92,18a.81.81,0,0,1,1.16-.81l.1,0s0,0,0,0l-.08-.13a6,6,0,0,1-.85-2.1c-.17-1,.33-1.52,1.35-1.4a4.27,4.27,0,0,1,2.17,1,12,12,0,0,1,.86.89s0-.13,0-.21c-.09-.45-.21-.89-.27-1.34a6.72,6.72,0,0,1-.1-1.18,1.61,1.61,0,0,1,.67-1.3,2,2,0,0,1,2.33-.07,13.28,13.28,0,0,1,1.23,1c.19.17.23.17.36,0a.41.41,0,0,1,.41-.26l.14.14a3.87,3.87,0,0,1,.32,1.46,1.77,1.77,0,0,0,.07.46c.06.24.14.25.31.09l.24-.27a.53.53,0,0,1,.6-.2l.15.14a4,4,0,0,1,.17.66A6,6,0,0,1,81.49,18l0,.11a4.66,4.66,0,0,1,.47-.3.28.28,0,0,1,.44.22,1.11,1.11,0,0,1,0,.48c-.16.64-.32,1.28-.53,1.9a6.14,6.14,0,0,1-1.42,2.39c-.1.11-.19.23-.31.38l.72-.22a1.35,1.35,0,0,1-.25,1,5.13,5.13,0,0,1-2.79,2.09l-.08.05.13,0c.35.07.42.22.18.47a4.5,4.5,0,0,1-.9.73,21.82,21.82,0,0,1-4.25,1.81l-.2.08a21.45,21.45,0,0,0,5-1.17c1.13-.43,2.23-.94,3.34-1.41a4.37,4.37,0,0,1,1.7-.44,1.2,1.2,0,0,1,1,.46,3.83,3.83,0,0,1,.3.65l.08-.12A4.56,4.56,0,0,1,86,25.68a1.93,1.93,0,0,1,1.32-.05,1,1,0,0,1,.75,1.26.54.54,0,0,1,0,.11l.17-.15c.36-.29.7-.62,1.08-.87a2.15,2.15,0,0,1,1.83-.3c.79.22,1.33,1.32.5,1.91.14,0,.26,0,.37,0a11.43,11.43,0,0,1,1.17.2,1.93,1.93,0,0,1,1.16.79,2.54,2.54,0,0,1-2.14,3.81,2.29,2.29,0,0,1,.13.48,1.3,1.3,0,0,1-1.18,1.33,4.11,4.11,0,0,1-1.16-.1,5.21,5.21,0,0,1-1.82-.88L87.86,33a4.49,4.49,0,0,0,.37.49.84.84,0,0,1,0,1.11,1.48,1.48,0,0,1-.88.46,2.3,2.3,0,0,1-1.75-.36c-.7-.46-1.37-1-2-1.47-.16-.11-.31-.25-.5-.4,0,.18.09.3.12.43.09.48-.12.7-.6.65a3.17,3.17,0,0,1-1.28-.38c-.56-.3-1.1-.63-1.65-.93A15.52,15.52,0,0,0,75,31.07c-.75-.15-1.5-.26-2.26-.39v.06l.22.08a29.11,29.11,0,0,1,4.37,1.89,2.73,2.73,0,0,1,.69.58c.17.18.1.35-.15.44l-.25.07c.22.08.44.14.65.23a5,5,0,0,1,2.49,2.23.9.9,0,0,1,.08.71l-.77-.16.44.48a4.07,4.07,0,0,1,.82,1.07,12.71,12.71,0,0,1,1,3.07,1.61,1.61,0,0,1,0,.44c0,.33-.25.44-.55.27a3.44,3.44,0,0,1-.38-.27,5.67,5.67,0,0,1,.74,3.37,1.86,1.86,0,0,1-.18.69.39.39,0,0,1-.67.11c-.06-.06-.12-.14-.18-.21a3.65,3.65,0,0,0-.29-.32,1.76,1.76,0,0,0-.1.35c-.06.32-.09.64-.15,1a3.36,3.36,0,0,1-.18.71c-.12.32-.39.34-.6.07l0-.05c-.09-.16-.19-.15-.3,0l-.32.31a10.69,10.69,0,0,1-1,.8,2,2,0,0,1-2.14,0,1.84,1.84,0,0,1-.92-1.79,6.18,6.18,0,0,1,.11-.85c.08-.46.19-.91.28-1.37a.36.36,0,0,0,0-.11s0-.08,0-.12a4.31,4.31,0,0,1-1.07,1.14,3.91,3.91,0,0,1-2,.84c-.94.07-1.38-.4-1.26-1.33a5.14,5.14,0,0,1,.53-1.56c.13-.27.28-.52.44-.8a.86.86,0,0,1-1-.07,1,1,0,0,1-.28-1,2.25,2.25,0,0,1,.13-.42,3.11,3.11,0,0,1,1.24-1.57l-.25,0a5,5,0,0,1-.64-.17.75.75,0,0,1-.49-.62,1.23,1.23,0,0,1,.24-1c.17-.2.37-.39.54-.6a5.28,5.28,0,0,0,.37-.55l0,0-.16.08c-.17.08-.31.06-.37-.14a4.66,4.66,0,0,1-.22-.79,3.9,3.9,0,0,0-1.65-2.65,12.09,12.09,0,0,0-3.51-1.82l-.7-.2c0,.08,0,.14,0,.19A24.09,24.09,0,0,1,64.9,35,18.66,18.66,0,0,1,62,41.91a6.79,6.79,0,0,1-2,2,2.32,2.32,0,0,1-1.77.33c-1.54-.33-3.09-.62-4.64-.92a.28.28,0,0,1-.27-.31c0-.22,0-.44,0-.66.06-.93.15-1.85.17-2.78A4.75,4.75,0,0,0,53,37.1a7.25,7.25,0,0,0-.5-.73.46.46,0,0,0-.07.18,9.78,9.78,0,0,1-2.08,5.27,1.41,1.41,0,0,1-1.17.64c-.52,0-1.05,0-1.57,0a31,31,0,0,1-7.33-1.4,20.48,20.48,0,0,1-1.95-.8,1.54,1.54,0,0,1-.89-1.68c0-.45.11-.9.19-1.35a6.66,6.66,0,0,0-.42-4L37.05,33c0,.13-.06.21-.08.28-.4,1.22-.78,2.45-1.2,3.66a5.47,5.47,0,0,1-.93,1.73A.74.74,0,0,1,34,39c-.84-.23-1.7-.43-2.55-.65-4.4-1.15-8.77-2.35-13.07-3.83A40.6,40.6,0,0,1,12.47,32a6.69,6.69,0,0,1-1.81-1.26A.92.92,0,0,1,10.46,29.48Z"/></g></svg>