<svg id="Layer_2" data-name="Layer 2" xmlns="http://www.w3.org/2000/svg" viewBox="0 0 36 54.67"><title>scroll</title><g id="jq3yk2.tif"><path d="M20.11,7a10.32,10.32,0,0,1,8,9.86c0,.82,0,1.65,0,2.47a3.53,3.53,0,0,0,.76,2.22c1.32,1.72,2.65,3.43,3.86,5.22a17.52,17.52,0,0,1,3.13,7.34,17.51,17.51,0,0,1-2.32,11.4C30,51.77,23,55.47,16.17,54.55,8.51,53.51,3.46,49.13,1,41.88A14.84,14.84,0,0,1,2.18,28.83c1.43-2.37,3.09-4.6,4.75-6.83A5.3,5.3,0,0,0,8,18.82a17.5,17.5,0,0,1,.41-4.53A9.71,9.71,0,0,1,16.68,7a1.51,1.51,0,0,0,1.15-.76C19,4.38,20.15,2.59,21.32.8c.51-.78,1.15-1,1.77-.62a1.26,1.26,0,0,1,.24,1.91Zm5.57,11h0c0-.5,0-1,0-1.49a7.83,7.83,0,0,0-5.69-7,7.55,7.55,0,0,0-8.26,3.17,8.23,8.23,0,0,0-1.34,5.37,8.07,8.07,0,0,1-2,6,52.84,52.84,0,0,0-4.27,6.2A12.41,12.41,0,0,0,2.6,38.66,15.72,15.72,0,0,0,20.14,52.07,15.88,15.88,0,0,0,33.6,35.56a13.87,13.87,0,0,0-2.65-7c-1.21-1.82-2.53-3.57-3.88-5.28a6.24,6.24,0,0,1-1.38-3.91C25.68,18.87,25.68,18.42,25.68,18Z"/></g><rect x="16.58" y="15.5" width="2.4" height="8.51" rx="1.2" ry="1.2"/></svg>